<svg xmlns="http://www.w3.org/2000/svg" viewBox="0 0 1280 720">
  <defs>
    <style id="palette-vars">
      :root, svg {
        --bg: #ffffff;
        --surface: #f5f5f5;
        --border: #e0e0e0;
        --text: #212121;
        --text-muted: #555555;
        --text-faint: #888888;
        --code-bg: #1a1a2e;
        --shadow: #00000022;
        --black: #000000;
        --primary-fill: #2196f3;
        --primary-border: #1565c0;
        --primary-text: #ffffff;
        --primary-accent: #0d47a1;
        --ok-fill: #4caf50;
        --ok-border: #2e7d32;
        --ok-text: #ffffff;
        --ok-accent: #1b5e20;
        --warn-fill: #ff9800;
        --warn-border: #e65100;
        --warn-text: #ffffff;
        --warn-accent: #bf360c;
        --danger-fill: #e74c3c;
        --danger-border: #c62828;
        --danger-text: #ffffff;
        --danger-accent: #b71c1c;
        --info-fill: #9c27b0;
        --info-border: #6a1b9a;
        --info-text: #ffffff;
        --info-accent: #4a148c;
      }
    </style>
    <linearGradient id="grad-primary" x1="0" y1="0" x2="0" y2="1">
      <stop offset="0%" stop-color="#2196f3" />
      <stop offset="100%" stop-color="#1565c0" />
    </linearGradient>
    <linearGradient id="grad-surface" x1="0" y1="0" x2="0" y2="1">
      <stop offset="0%" stop-color="#ffffff" />
      <stop offset="100%" stop-color="#f5f5f5" />
    </linearGradient>
    <linearGradient id="grad-ok" x1="0" y1="0" x2="0" y2="1">
      <stop offset="0%" stop-color="#4caf50" />
      <stop offset="100%" stop-color="#2e7d32" />
    </linearGradient>
    <linearGradient id="grad-warn" x1="0" y1="0" x2="0" y2="1">
      <stop offset="0%" stop-color="#ff9800" />
      <stop offset="100%" stop-color="#e65100" />
    </linearGradient>
    <linearGradient id="grad-danger" x1="0" y1="0" x2="0" y2="1">
      <stop offset="0%" stop-color="#e74c3c" />
      <stop offset="100%" stop-color="#c62828" />
    </linearGradient>
    <linearGradient id="grad-info" x1="0" y1="0" x2="0" y2="1">
      <stop offset="0%" stop-color="#9c27b0" />
      <stop offset="100%" stop-color="#6a1b9a" />
    </linearGradient>
    <filter id="shadow" x="-4%" y="-8%" width="108%" height="124%">
      <feDropShadow dx="0" dy="2" stdDeviation="3" flood-color="#00000022" />
    </filter>
    <marker id="arrow" markerWidth="10" markerHeight="10" refX="9" refY="5" orient="auto">
      <path d="M1,2 L9,5 L1,8 Z" fill="#555555" />
    </marker>
    <marker id="arrow-primary" markerWidth="10" markerHeight="10" refX="9" refY="5" orient="auto">
      <path d="M1,2 L9,5 L1,8 Z" fill="#1565c0" />
    </marker>
    <marker id="arrow-ok" markerWidth="10" markerHeight="10" refX="9" refY="5" orient="auto">
      <path d="M1,2 L9,5 L1,8 Z" fill="#2e7d32" />
    </marker>
    <marker id="arrow-warn" markerWidth="10" markerHeight="10" refX="9" refY="5" orient="auto">
      <path d="M1,2 L9,5 L1,8 Z" fill="#e65100" />
    </marker>
    <marker id="arrow-danger" markerWidth="10" markerHeight="10" refX="9" refY="5" orient="auto">
      <path d="M1,2 L9,5 L1,8 Z" fill="#c62828" />
    </marker>
    <marker id="arrow-info" markerWidth="10" markerHeight="10" refX="9" refY="5" orient="auto">
      <path d="M1,2 L9,5 L1,8 Z" fill="#6a1b9a" />
    </marker>
    <marker id="arrow-white" markerWidth="10" markerHeight="10" refX="9" refY="5" orient="auto">
      <path d="M1,2 L9,5 L1,8 Z" fill="#ffffff" />
    </marker>
  </defs>
  <rect width="611.7085" height="305.8542" fill="var(--bg)" rx="5.1971" />
  <rect x="104.7551" y="63.2736" width="277.1804" height="281.9594" rx="5.1971" fill="var(--danger-fill)" stroke="var(--danger-border)" stroke-width="1.2234" />
  <text x="243.3453" y="80" font-family="Arial, sans-serif" font-size="10.5137" font-weight="bold" fill="var(--danger-accent)" text-anchor="middle">On-Premises (Fixed Capacity)</text>
  <line x1="133.4288" y1="106.2843" x2="133.4288" y2="297.4433" stroke="var(--text-muted)" stroke-width="0.675" />
  <line x1="133.4288" y1="297.4433" x2="353.2616" y2="297.4433" stroke="var(--text-muted)" stroke-width="0.675" />
  <text x="114.313" y="201.8638" font-family="Arial, sans-serif" font-size="10" fill="var(--text-muted)" text-anchor="middle" transform="rotate(-90,60,320)">Capacity / Demand</text>
  <text x="243.3453" y="311.7802" font-family="Arial, sans-serif" font-size="10" fill="var(--text-muted)" text-anchor="middle">Time</text>
  <line x1="133.4288" y1="144.5161" x2="353.2616" y2="144.5161" stroke="var(--danger-border)" stroke-width="1.0125" stroke-dasharray="2.7 1.35" />
  <text x="355.6511" y="142.1267" font-family="Arial, sans-serif" font-size="10" fill="var(--danger-accent)">Peak Capacity</text>
  <path d="M 133.4288 249.6535 C 162.1027 240.0956 181.2186 216.2007 200.3345 192.3058 C 219.4504 168.411 229.0083 134.9582 248.1242 125.4003 C 267.2401 134.9582 276.7981 168.411 295.9139 216.2007 C 305.4719 240.0956 324.5878 254.4325 343.7036 244.8745" fill="none" stroke="var(--primary-border)" stroke-width="1.0125" />
  <text x="346.0932" y="242.4851" font-family="Arial, sans-serif" font-size="10" fill="var(--primary-accent)">Demand</text>
  <path d="M 133.4288 144.5161 L 133.4288 249.6535 C 162.1027 240.0956 181.2186 216.2007 200.3345 192.3058 C 219.4504 168.411 229.0083 144.5161 229.0083 144.5161 Z" fill="var(--danger-fill)" opacity="0.4" />
  <text x="171.6606" y="187.5269" font-family="Arial, sans-serif" font-size="10" fill="var(--danger-accent)" text-anchor="middle">Wasted</text>
  <text x="171.6606" y="196.129" font-family="Arial, sans-serif" font-size="10" fill="var(--danger-accent)" text-anchor="middle">capacity</text>
  <path d="M 229.0083 144.5161 C 229.0083 144.5161 229.0083 134.9582 248.1242 125.4003 C 267.2401 134.9582 267.2401 144.5161 267.2401 144.5161 Z" fill="var(--warn-fill)" opacity="0.5" />
  <text x="248.1242" y="123.0107" font-family="Arial, sans-serif" font-size="10" fill="var(--warn-accent)" text-anchor="middle">Unmet demand!</text>
  <rect x="401.0513" y="63.2736" width="277.1804" height="281.9594" rx="5.1971" fill="var(--ok-fill)" stroke="var(--ok-border)" stroke-width="1.2234" />
  <text x="539.6415" y="80" font-family="Arial, sans-serif" font-size="10.5137" font-weight="bold" fill="var(--ok-accent)" text-anchor="middle">Cloud (Elastic Scaling)</text>
  <line x1="429.7252" y1="106.2843" x2="429.7252" y2="297.4433" stroke="var(--text-muted)" stroke-width="0.675" />
  <line x1="429.7252" y1="297.4433" x2="649.5579" y2="297.4433" stroke="var(--text-muted)" stroke-width="0.675" />
  <text x="410.6093" y="201.8638" font-family="Arial, sans-serif" font-size="10" fill="var(--text-muted)" text-anchor="middle" transform="rotate(-90,680,320)">Capacity / Demand</text>
  <text x="539.6415" y="311.7802" font-family="Arial, sans-serif" font-size="10" fill="var(--text-muted)" text-anchor="middle">Time</text>
  <path d="M 429.7252 249.6535 C 458.399 240.0956 477.5149 216.2007 496.6308 192.3058 C 515.7467 168.411 525.3046 134.9582 544.4206 125.4003 C 563.5364 134.9582 573.0943 168.411 592.2103 216.2007 C 601.7682 240.0956 620.8841 254.4325 640 244.8745" fill="none" stroke="var(--primary-border)" stroke-width="1.0125" />
  <text x="642.3895" y="242.4851" font-family="Arial, sans-serif" font-size="10" fill="var(--primary-accent)">Demand</text>
  <path d="M 429.7252 244.8745 C 458.399 235.3166 477.5149 211.4217 496.6308 187.5269 C 515.7467 163.632 525.3046 130.1792 544.4206 120.6213 C 563.5364 130.1792 573.0943 163.632 592.2103 211.4217 C 601.7682 235.3166 620.8841 249.6535 640 240.0956" fill="none" stroke="var(--ok-border)" stroke-width="1.0125" stroke-dasharray="2.7 1.35" />
  <text x="642.3895" y="237.706" font-family="Arial, sans-serif" font-size="10" fill="var(--ok-accent)">Capacity</text>
  <path d="M 429.7252 244.8745 C 458.399 235.3166 477.5149 211.4217 496.6308 187.5269 C 515.7467 163.632 525.3046 130.1792 544.4206 120.6213 C 563.5364 130.1792 573.0943 163.632 592.2103 211.4217 C 601.7682 235.3166 620.8841 249.6535 640 240.0956 L 640 244.8745 C 620.8841 254.4325 601.7682 240.0956 592.2103 216.2007 C 573.0943 168.411 563.5364 134.9582 544.4206 125.4003 C 525.3046 134.9582 515.7467 168.411 496.6308 192.3058 C 477.5149 216.2007 458.399 240.0956 429.7252 249.6535 Z" fill="var(--ok-fill)" opacity="0.4" />
  <text x="539.6415" y="182.748" font-family="Arial, sans-serif" font-size="10" fill="var(--ok-accent)" text-anchor="middle">Minimal waste</text>
  <text x="539.6415" y="330.896" font-family="Arial, sans-serif" font-size="10" fill="var(--ok-accent)" text-anchor="middle" font-weight="bold">Pay only for what you use</text>
  <text x="243.3453" y="330.896" font-family="Arial, sans-serif" font-size="10" fill="var(--danger-accent)" text-anchor="middle" font-weight="bold">Pay for peak, waste the rest</text>
</svg>