<svg xmlns="http://www.w3.org/2000/svg" viewBox="0 0 1280 720">
  <rect x="213.3333" y="108" width="853.3333" height="234" fill="#e8f5e9" stroke="#2e7d32" stroke-width="4.2667" rx="64" />
  <rect x="256" y="151.2" width="192" height="144" fill="#e3f2fd" stroke="#333" stroke-width="2.1333" rx="10.6667" />
  <text x="352" y="241.2" text-anchor="middle" font-size="21.3333">Dev</text>
  <rect x="544" y="151.2" width="192" height="144" fill="#f3e5f5" stroke="#333" stroke-width="2.1333" rx="10.6667" />
  <text x="640" y="241.2" text-anchor="middle" font-size="21.3333">Test</text>
  <rect x="832" y="151.2" width="192" height="144" fill="#fff3e0" stroke="#333" stroke-width="2.1333" rx="10.6667" />
  <text x="928" y="241.2" text-anchor="middle" font-size="21.3333">Ops</text>
  <line x1="448" y1="223.2" x2="544" y2="223.2" stroke="#2e7d32" stroke-width="4.2667" marker-end="url(#arr_collab)" />
  <line x1="736" y1="223.2" x2="832" y2="223.2" stroke="#2e7d32" stroke-width="4.2667" marker-end="url(#arr_collab)" />
  <text x="640" y="432" text-anchor="middle" font-size="21.3333" fill="#2e7d32">Unified team, shared goals, continuous flow</text>
  <defs>

    <!-- Gradients -->
    <linearGradient id="grad-primary" x1="0" y1="0" x2="0" y2="1">
      <stop offset="0%" stop-color="#1e88e5"/>
      <stop offset="100%" stop-color="#1565c0"/>
    </linearGradient>

    <linearGradient id="grad-surface" x1="0" y1="0" x2="0" y2="1">
      <stop offset="0%" stop-color="#ffffff"/>
      <stop offset="100%" stop-color="#f5f5f5"/>
    </linearGradient>

    <linearGradient id="grad-ok" x1="0" y1="0" x2="0" y2="1">
      <stop offset="0%" stop-color="#43a047"/>
      <stop offset="100%" stop-color="#2e7d32"/>
    </linearGradient>

    <linearGradient id="grad-warn" x1="0" y1="0" x2="0" y2="1">
      <stop offset="0%" stop-color="#fb8c00"/>
      <stop offset="100%" stop-color="#e65100"/>
    </linearGradient>

    <linearGradient id="grad-danger" x1="0" y1="0" x2="0" y2="1">
      <stop offset="0%" stop-color="#e53935"/>
      <stop offset="100%" stop-color="#c62828"/>
    </linearGradient>

    <linearGradient id="grad-info" x1="0" y1="0" x2="0" y2="1">
      <stop offset="0%" stop-color="#8e24aa"/>
      <stop offset="100%" stop-color="#6a1b9a"/>
    </linearGradient>

    <!-- Drop shadow -->
    <filter id="shadow" x="-4%" y="-8%" width="108%" height="124%">
      <feDropShadow dx="0" dy="2" stdDeviation="3" flood-color="#00000022"/>
    </filter>

    <!-- Arrow markers -->
    <marker id="arrow" markerWidth="10" markerHeight="10" refX="9" refY="5" orient="auto">
      <path d="M1,2 L9,5 L1,8 Z" fill="#555555"/>
    </marker>
    <marker id="arrow-primary" markerWidth="10" markerHeight="10" refX="9" refY="5" orient="auto">
      <path d="M1,2 L9,5 L1,8 Z" fill="#1565c0"/>
    </marker>
    <marker id="arrow-ok" markerWidth="10" markerHeight="10" refX="9" refY="5" orient="auto">
      <path d="M1,2 L9,5 L1,8 Z" fill="#2e7d32"/>
    </marker>
    <marker id="arrow-warn" markerWidth="10" markerHeight="10" refX="9" refY="5" orient="auto">
      <path d="M1,2 L9,5 L1,8 Z" fill="#e65100"/>
    </marker>
    <marker id="arrow-danger" markerWidth="10" markerHeight="10" refX="9" refY="5" orient="auto">
      <path d="M1,2 L9,5 L1,8 Z" fill="#c62828"/>
    </marker>
    <marker id="arrow-info" markerWidth="10" markerHeight="10" refX="9" refY="5" orient="auto">
      <path d="M1,2 L9,5 L1,8 Z" fill="#6a1b9a"/>
    </marker>
    <marker id="arrow-white" markerWidth="10" markerHeight="10" refX="9" refY="5" orient="auto">
      <path d="M1,2 L9,5 L1,8 Z" fill="#ffffff"/>
    </marker>
  
    <marker id="arr_collab" markerWidth="21.3333" markerHeight="36" refX="19.2" refY="10.8" orient="auto">
      <path d="M 0 0 L 0 21.6 L 19.2 10.8 z" fill="#2e7d32" />
    </marker>
  </defs>
</svg>